# xmcd CD database file
#
# Track frame offsets:
#	150
#	11842
#	30127
#	45995
#	64850
#	82105
#	97610
#	114797
#	135340
#	150810
#	163642
#	180377
#	198925
#
# Disc length: 2858 seconds
#
# Revision: 2
# Processed by: cddbd v1.5.2PL0 Copyright (c) Steve Scherf et al.
# Submitted via: CDex 1.70beta2
#
DISCID=820b280d
DTITLE=The Woolpackers - Emmerdance
DYEAR=1996
DGENRE=Country
TTITLE0=Hillbilly Rock Hillbilly Roll
TTITLE1=Chatahoochee
TTITLE2=Line Dancing
TTITLE3=Boot Scootin' Boogie
TTITLE4=2 Chilli Dogs
TTITLE5=Footloose
TTITLE6=On My Radio
TTITLE7=Horses
TTITLE8=Baby Likes To Rock It
TTITLE9=Blue Rodeo
TTITLE10=You're Gonna Be Blue
TTITLE11=2 Left Feet
TTITLE12=Down On The Farm
EXTD=YEAR: 1996
EXTT0=
EXTT1=
EXTT2=
EXTT3=
EXTT4=
EXTT5=
EXTT6=
EXTT7=
EXTT8=
EXTT9=
EXTT10=
EXTT11=
EXTT12=
PLAYORDER=
